<?xml version="1.0" encoding="UTF-8" ?>
<!DOCTYPE svg PUBLIC "-//W3C//DTD SVG 1.1//EN" "http://www.w3.org/Graphics/SVG/1.1/DTD/svg11.dtd">
<svg width="525pt" height="185pt" viewBox="0 0 525 185" version="1.1" xmlns="http://www.w3.org/2000/svg">
<g id="#fcfefcff">
</g>
<g id="#04438aff">
<path fill="#04438a" opacity="1.00" d=" M 266.34 25.14 C 267.68 18.29 269.22 11.48 270.70 4.65 C 281.92 4.67 293.13 4.68 304.35 4.65 C 302.90 11.38 301.41 18.11 300.15 24.89 C 288.89 25.42 277.60 24.98 266.34 25.14 Z" />
<path fill="#04438a" opacity="1.00" d=" M 402.59 24.74 C 403.90 18.03 405.47 11.37 406.87 4.67 C 418.10 4.64 429.32 4.70 440.54 4.64 C 439.07 11.46 437.64 18.30 436.19 25.12 C 424.99 24.90 413.75 25.60 402.59 24.74 Z" />
<path fill="#04438a" opacity="1.00" d=" M 469.40 7.49 C 480.60 7.53 491.81 7.51 503.02 7.51 C 501.12 16.57 499.29 25.64 497.27 34.68 C 504.67 34.67 512.07 34.71 519.48 34.65 C 517.83 42.07 516.37 49.53 514.69 56.95 C 507.32 56.91 499.95 56.94 492.59 56.94 C 490.05 68.96 487.40 80.96 484.90 92.98 C 484.27 95.34 484.35 98.85 487.29 99.52 C 493.52 100.85 499.97 99.97 506.28 99.77 C 504.64 106.74 503.49 113.83 501.62 120.74 C 491.22 122.58 480.56 122.61 470.02 122.39 C 463.86 121.93 456.87 121.24 452.33 116.55 C 448.15 112.06 448.84 105.36 449.75 99.78 C 452.81 85.50 455.85 71.21 458.84 56.91 C 452.99 56.94 447.15 56.87 441.31 57.00 C 442.83 49.54 444.57 42.13 445.97 34.65 C 451.83 34.70 457.68 34.63 463.54 34.71 C 465.54 25.65 467.39 16.55 469.40 7.49 Z" />
<path fill="#04438a" opacity="1.00" d=" M 45.00 33.85 C 58.43 30.83 72.32 31.00 85.99 31.70 C 96.41 32.82 107.90 34.61 115.61 42.41 C 120.23 46.86 121.16 53.61 120.59 59.71 C 108.06 59.76 95.54 59.72 83.01 59.73 C 82.84 56.76 81.48 53.73 78.52 52.63 C 72.08 50.05 64.79 50.19 58.06 51.48 C 53.85 52.23 49.67 55.40 49.47 59.98 C 50.62 63.12 54.31 63.79 57.21 64.33 C 65.77 65.47 74.37 66.26 82.94 67.30 C 91.67 68.24 100.81 69.06 108.61 73.45 C 113.51 76.12 116.92 81.31 117.10 86.94 C 117.27 95.38 113.95 103.92 107.82 109.79 C 101.07 116.21 92.04 119.53 83.10 121.50 C 73.55 123.68 63.71 123.85 53.97 124.18 C 39.75 123.51 24.30 123.24 12.19 114.73 C 5.50 110.12 3.19 101.48 4.57 93.76 C 17.56 93.72 30.55 93.75 43.54 93.74 C 44.03 96.15 44.12 99.13 46.42 100.62 C 50.33 103.39 55.35 103.56 59.96 103.68 C 65.01 103.70 70.44 103.59 74.85 100.79 C 77.28 99.18 79.16 95.91 77.97 93.01 C 76.49 90.64 73.40 90.27 70.90 89.79 C 60.91 88.43 50.90 87.30 40.90 86.07 C 33.72 85.19 26.22 84.02 20.11 79.87 C 15.91 77.06 13.48 72.01 13.74 66.99 C 14.14 59.38 17.00 51.82 22.03 46.07 C 27.97 39.46 36.49 35.83 45.00 33.85 Z" />
<path fill="#04438a" opacity="1.00" d=" M 167.94 46.15 C 176.94 37.91 188.85 32.92 201.08 32.53 C 212.27 32.09 224.20 33.83 233.43 40.64 C 240.22 45.62 244.34 53.66 245.23 61.96 C 246.89 78.83 240.27 96.30 227.82 107.81 C 217.12 117.88 202.58 123.43 187.97 124.00 C 176.19 124.54 162.69 122.48 154.77 112.80 C 152.20 125.76 149.25 138.64 146.56 151.58 C 135.32 151.58 124.08 151.58 112.83 151.58 C 121.20 112.62 129.45 73.63 137.73 34.65 C 148.66 34.69 159.59 34.72 170.52 34.63 C 169.68 38.48 168.85 42.33 167.94 46.15 M 183.52 56.72 C 175.27 58.18 167.70 63.63 164.36 71.41 C 161.70 77.66 160.19 85.26 163.52 91.55 C 166.11 96.46 171.72 98.67 176.95 99.29 C 184.69 100.09 193.04 99.03 199.54 94.47 C 206.93 89.17 210.46 79.85 210.46 70.99 C 210.46 66.22 208.17 61.39 203.94 59.00 C 197.77 55.57 190.30 55.62 183.52 56.72 Z" />
<path fill="#04438a" opacity="1.00" d=" M 246.07 120.60 C 252.06 91.92 258.17 63.26 264.36 34.63 C 275.56 34.73 286.77 34.69 297.98 34.65 C 291.88 63.30 285.84 91.97 279.69 120.62 C 268.48 120.54 257.28 120.58 246.07 120.60 Z" />
<path fill="#04438a" opacity="1.00" d=" M 293.30 120.54 C 299.53 91.93 305.53 63.28 311.61 34.64 C 322.58 34.71 333.55 34.69 344.52 34.65 C 338.21 63.26 332.27 91.94 326.17 120.59 C 315.22 120.54 304.26 120.62 293.30 120.54 Z" />
<path fill="#04438a" opacity="1.00" d=" M 382.20 120.58 C 388.35 91.94 394.34 63.26 400.54 34.63 C 411.75 34.72 422.96 34.67 434.18 34.66 C 428.12 63.29 421.95 91.90 415.98 120.55 C 404.72 120.58 393.46 120.57 382.20 120.58 Z" />
<path fill="#04438a" opacity="1.00" d=" M 271.56 138.41 C 273.04 138.43 274.51 138.44 275.99 138.47 C 273.03 152.60 269.96 166.71 267.02 180.84 C 265.51 180.88 264.00 180.92 262.50 180.96 C 265.43 166.75 268.43 152.57 271.56 138.41 Z" />
<path fill="#04438a" opacity="1.00" d=" M 289.40 138.42 C 290.90 138.43 292.40 138.44 293.91 138.46 C 293.43 140.65 292.94 142.84 292.43 145.02 C 290.97 145.05 289.51 145.09 288.05 145.13 C 288.45 142.88 288.90 140.64 289.40 138.42 Z" />
<path fill="#04438a" opacity="1.00" d=" M 225.62 145.08 C 226.08 142.88 226.53 140.69 226.95 138.49 C 228.47 138.45 229.99 138.41 231.51 138.38 C 231.03 140.61 230.54 142.84 230.06 145.07 C 228.57 145.07 227.09 145.07 225.62 145.08 Z" />
<path fill="#04438a" opacity="1.00" d=" M 187.37 151.34 C 192.19 148.90 197.82 149.16 203.05 149.62 C 206.37 149.95 210.49 152.02 210.30 155.89 C 209.58 163.21 206.88 170.22 206.41 177.58 C 207.54 177.63 209.79 177.73 210.91 177.79 C 210.42 178.90 209.92 180.01 209.42 181.13 C 207.46 181.15 205.49 181.17 203.53 181.19 C 202.83 179.65 202.38 178.01 202.05 176.36 C 197.47 181.21 190.35 182.44 183.97 181.64 C 180.84 181.23 177.39 179.39 176.75 176.02 C 175.98 171.46 178.85 166.80 183.06 165.06 C 190.08 161.94 198.13 163.88 205.26 161.19 C 205.70 158.82 206.77 155.41 203.94 154.11 C 199.99 152.60 195.49 152.96 191.38 153.61 C 188.06 154.16 186.16 157.04 184.76 159.81 C 183.40 159.74 182.04 159.67 180.68 159.60 C 182.27 156.42 184.01 152.96 187.37 151.34 M 187.96 167.19 C 184.92 167.62 181.59 169.62 181.34 172.97 C 180.59 175.85 183.41 178.01 185.98 178.29 C 191.24 179.05 197.03 177.65 200.90 173.87 C 203.41 171.53 203.73 167.90 204.63 164.77 C 199.20 166.37 193.50 166.28 187.96 167.19 Z" />
<path fill="#04438a" opacity="1.00" d=" M 250.49 150.54 C 253.26 149.18 256.41 149.35 259.42 149.36 C 259.05 150.87 258.70 152.39 258.34 153.91 C 252.10 152.68 245.10 155.56 242.73 161.72 C 240.53 167.93 239.76 174.54 238.23 180.94 C 236.74 180.91 235.24 180.88 233.76 180.85 C 235.94 170.68 238.05 160.50 240.21 150.33 C 241.75 150.30 243.30 150.28 244.84 150.26 C 244.32 152.49 243.79 154.71 243.24 156.94 C 245.39 154.54 247.40 151.77 250.49 150.54 Z" />
<path fill="#04438a" opacity="1.00" d=" M 306.82 155.80 C 310.01 152.41 314.17 149.71 318.93 149.41 C 322.91 149.19 327.76 149.15 330.51 152.56 C 332.79 155.53 332.12 159.49 331.42 162.89 C 330.06 168.96 328.90 175.08 327.46 181.13 C 326.38 181.12 324.21 181.09 323.12 181.08 C 324.39 173.99 326.28 167.04 327.49 159.95 C 328.08 157.41 326.84 154.61 324.31 153.73 C 317.58 151.69 308.83 154.05 306.14 161.12 C 303.92 167.61 303.18 174.50 301.44 181.12 C 300.35 181.11 298.19 181.09 297.11 181.08 C 299.17 170.79 301.41 160.53 303.55 150.26 C 305.10 150.28 306.65 150.29 308.21 150.32 C 307.74 152.14 307.29 153.97 306.82 155.80 Z" />
<path fill="#04438a" opacity="1.00" d=" M 340.48 161.42 C 343.34 154.45 350.45 149.42 358.03 149.35 C 362.94 149.06 368.69 150.00 371.68 154.36 C 374.26 157.95 373.53 162.60 373.24 166.73 C 363.21 166.77 353.18 166.69 343.15 166.77 C 342.93 170.49 343.63 174.89 347.30 176.76 C 354.01 180.07 363.27 177.76 367.01 171.05 C 368.51 171.11 370.01 171.18 371.52 171.26 C 368.44 176.00 363.97 180.10 358.27 181.25 C 352.56 182.39 345.46 182.46 341.30 177.71 C 337.58 173.12 338.25 166.53 340.48 161.42 M 354.41 153.63 C 349.50 154.85 346.07 158.89 343.91 163.25 C 352.44 163.36 360.98 163.32 369.52 163.28 C 368.97 160.55 368.76 157.34 366.41 155.46 C 363.16 152.62 358.39 152.78 354.41 153.63 Z" />
<path fill="#04438a" opacity="1.00" d=" M 383.48 156.99 C 385.27 151.88 390.97 149.63 396.00 149.40 C 400.36 149.26 405.36 149.07 408.87 152.13 C 410.96 153.95 410.65 156.91 410.97 159.40 C 409.65 159.45 408.35 159.49 407.05 159.54 C 406.30 157.14 405.53 154.01 402.59 153.56 C 398.39 152.99 393.52 152.43 389.79 154.88 C 387.98 156.18 386.21 159.76 388.70 161.18 C 394.92 164.02 402.79 162.18 408.33 166.63 C 411.74 171.59 407.36 178.41 402.26 180.23 C 396.14 182.38 388.95 182.68 382.92 180.11 C 379.37 178.72 378.84 174.69 379.01 171.37 C 380.36 171.29 381.73 171.22 383.10 171.16 C 383.51 173.29 383.71 175.97 385.98 177.01 C 390.73 178.80 396.15 178.52 400.94 176.98 C 403.82 175.90 406.76 170.81 403.14 168.96 C 397.47 166.46 390.73 167.89 385.26 164.81 C 382.42 163.33 382.29 159.61 383.48 156.99 Z" />
<path fill="#04438a" opacity="1.00" d=" M 224.46 150.27 C 225.96 150.28 227.45 150.29 228.95 150.31 C 226.85 160.58 224.66 170.82 222.39 181.06 C 220.95 181.09 219.51 181.12 218.07 181.15 C 219.85 170.79 222.38 160.57 224.46 150.27 Z" />
<path fill="#04438a" opacity="1.00" d=" M 286.82 150.30 C 288.37 150.29 289.91 150.28 291.46 150.28 C 289.24 160.43 286.97 170.57 284.96 180.77 C 283.42 180.91 281.89 181.05 280.35 181.19 C 282.43 170.88 284.67 160.60 286.82 150.30 Z" />
</g>
<g id="#e02119ff">
<path fill="#e02119" opacity="1.00" d=" M 356.26 42.23 C 365.35 34.55 377.37 29.18 389.46 31.28 C 387.05 41.39 385.16 51.62 382.77 61.73 C 370.44 59.66 356.60 59.38 345.89 66.82 C 341.47 69.54 338.81 74.07 336.31 78.45 C 338.50 64.55 345.24 51.19 356.26 42.23 Z" />
</g>
</svg>
